<?xml version="1.0" encoding="UTF-8" standalone="no"?>
<!-- Generator: Adobe Illustrator 24.1.1, SVG Export Plug-In . SVG Version: 6.00 Build 0)  -->

<svg
   version="1.1"
   id="Layer_1"
   x="0px"
   y="0px"
   viewBox="0 0 512 512"
   style="enable-background:new 0 0 512 512;"
   xml:space="preserve"
   sodipodi:docname="battery_40_charging.svg"
   inkscape:version="1.2 (dc2aedaf03, 2022-05-15)"
   xmlns:inkscape="http://www.inkscape.org/namespaces/inkscape"
   xmlns:sodipodi="http://sodipodi.sourceforge.net/DTD/sodipodi-0.dtd"
   xmlns="http://www.w3.org/2000/svg"
   xmlns:svg="http://www.w3.org/2000/svg"><defs
   id="defs9">
	
</defs><sodipodi:namedview
   id="namedview7"
   pagecolor="#505050"
   bordercolor="#ffffff"
   borderopacity="1"
   inkscape:showpageshadow="0"
   inkscape:pageopacity="0"
   inkscape:pagecheckerboard="1"
   inkscape:deskcolor="#505050"
   showgrid="false"
   inkscape:zoom="0.54759345"
   inkscape:cx="-108.65725"
   inkscape:cy="30.131843"
   inkscape:window-width="1920"
   inkscape:window-height="996"
   inkscape:window-x="-8"
   inkscape:window-y="-8"
   inkscape:window-maximized="1"
   inkscape:current-layer="Layer_1" />
<style
   type="text/css"
   id="style2">
	.st0{fill:#333333;}
</style>

<path
   d="M 322.53944,89.045588 H 293.35951 V 67.268835 h -76.21583 v 21.776753 h -27.68553 c -18.01356,0 -32.66313,14.653562 -32.66313,32.665522 v 290.35613 c 0,18.00796 14.65357,32.66392 32.66313,32.66392 h 133.08129 c 18.01916,0 32.66553,-14.65596 32.66553,-32.66392 V 121.71031 c 0,-18.01116 -14.64637,-32.664722 -32.66553,-32.664722 z m 10.89279,323.024062 c 0,6.00078 -4.8864,10.88556 -10.89279,10.88556 H 189.45815 c -6.00079,0 -10.88638,-4.87599 -10.88638,-10.88556 V 121.71031 c 0,-6.00078 4.88559,-10.88877 10.88638,-10.88877 h 133.08129 c 6.00639,0 10.89279,4.88719 10.89279,10.88877 z"
   id="path2"
   style="fill:#ffffff;fill-opacity:1;stroke-width:0.799998"
   sodipodi:nodetypes="sccccsssssssssssssssss" /><path
   d="M 313.96492,402.68948 H 198.18953 V 361.4916 h 115.7754 z"
   style="fill:#ffb877;fill-opacity:1;stroke-width:0.698082"
   id="path903"
   sodipodi:nodetypes="ccccc" /><path
   id="path903-3"
   style="fill:#ffb877;fill-opacity:1;stroke-width:0.698082"
   d="M 198.11133 303.08984 L 198.11133 344.28711 L 210.18164 344.28711 C 203.42116 339.71333 200.48044 331.16984 203.10938 323.36719 L 209.95312 303.08984 L 198.11133 303.08984 z M 271.04102 303.08984 L 233.50391 341.88477 C 232.61628 342.80124 231.64465 343.59358 230.62109 344.28711 L 313.88867 344.28711 L 313.88867 303.08984 L 271.04102 303.08984 z " /><path
   style="fill:#ffffff;fill-opacity:1;stroke-width:0.422216"
   d="m 303.08982,236.82811 h -35.21457 l 21.27424,-40.77897 h -0.98794 l -77.44053,70.15598 h 33.65575 l -16.22748,48.07614 z"
   id="path1074"
   sodipodi:nodetypes="cccccccc" /></svg>
