<?xml version="1.0" encoding="UTF-8" standalone="no"?>
<!-- Generator: Adobe Illustrator 24.1.1, SVG Export Plug-In . SVG Version: 6.00 Build 0)  -->

<svg
   version="1.1"
   id="Layer_1"
   x="0px"
   y="0px"
   viewBox="0 0 512 512"
   style="enable-background:new 0 0 512 512;"
   xml:space="preserve"
   sodipodi:docname="dropdown_setup.svg"
   inkscape:version="1.2 (dc2aedaf03, 2022-05-15)"
   xmlns:inkscape="http://www.inkscape.org/namespaces/inkscape"
   xmlns:sodipodi="http://sodipodi.sourceforge.net/DTD/sodipodi-0.dtd"
   xmlns="http://www.w3.org/2000/svg"
   xmlns:svg="http://www.w3.org/2000/svg"><defs
   id="defs9">
	
</defs><sodipodi:namedview
   id="namedview7"
   pagecolor="#505050"
   bordercolor="#ffffff"
   borderopacity="1"
   inkscape:showpageshadow="0"
   inkscape:pageopacity="0"
   inkscape:pagecheckerboard="1"
   inkscape:deskcolor="#505050"
   showgrid="false"
   inkscape:zoom="0.7744141"
   inkscape:cx="-85.87137"
   inkscape:cy="105.24085"
   inkscape:window-width="1920"
   inkscape:window-height="996"
   inkscape:window-x="-8"
   inkscape:window-y="-8"
   inkscape:window-maximized="1"
   inkscape:current-layer="Layer_1" />
<style
   type="text/css"
   id="style2">
	.st0{fill:#333333;}
</style>

<path
   d="m 64.264037,310.03098 c 4.368782,14.97864 10.431539,29.42234 18.099204,42.97443 l -21.843877,27.55003 c -7.13269,9.005 -6.330245,21.84382 1.694026,29.95726 l 37.624912,37.62491 c 8.113458,8.11344 20.952278,8.82581 29.957318,1.69314 l 27.37166,-21.66552 c 14.08706,8.11431 29.06571,14.44366 44.66845,18.90161 l 4.10129,35.21763 c 1.33739,11.4123 10.96652,19.97153 22.3788,19.97153 h 53.22768 c 11.41231,0 21.0414,-8.56013 22.37879,-19.97153 l 3.92299,-33.96941 c 16.7618,-4.36878 32.81032,-10.87736 47.87817,-19.34742 l 26.48008,20.95226 c 9.00501,7.13269 21.84384,6.33026 29.95729,-1.69401 l 37.6249,-37.62491 c 8.11344,-8.11344 8.82672,-20.95226 1.69404,-29.95728 L 430.8841,354.52024 c 8.55923,-14.80123 15.24613,-30.58141 19.70405,-47.07574 l 31.74046,-3.6555 c 11.41321,-1.33737 19.97151,-10.96652 19.97151,-22.3788 v -53.22767 c 0,-11.4123 -8.55919,-21.04143 -19.97151,-22.37881 l -31.29467,-3.65548 c -4.28049,-16.31604 -10.69901,-31.91879 -18.90073,-46.54079 l 19.25826,-24.3403 c 7.13267,-9.00502 6.33026,-21.84386 -1.69401,-29.95728 L 412.1617,63.774108 C 404.04826,55.66067 391.20943,54.947393 382.20443,62.080083 L 358.57738,80.803396 C 343.24213,71.798378 326.83605,64.933175 309.62935,60.296906 L 306.06298,29.715515 C 304.72561,18.303228 295.0965,9.7439998 283.68418,9.7439998 h -53.22767 c -11.4123,0 -21.04143,8.5592282 -22.3788,19.9715152 l -3.56635,30.581391 C 186.85796,65.02231 170.00699,72.155 154.31507,81.516657 L 129.79649,62.080083 c -9.00502,-7.13269 -21.84388,-6.330245 -29.957281,1.694025 L 62.21428,101.399 c -8.113438,8.11344 -8.826699,20.95228 -1.694009,29.9573 l 20.506457,25.94516 c -8.20259,14.8003 -14.443667,30.58139 -18.544978,46.98655 L 29.671393,208.0327 C 18.259089,209.37005 9.6998774,218.99918 9.6998774,230.4115 v 53.22766 c 0,11.41229 8.5592116,21.04143 19.9715156,22.37882 z M 257.11402,166.03989 c 48.50228,0 87.99953,39.49726 87.99953,87.9995 0,48.50228 -39.49725,87.99954 -87.99953,87.99954 -48.50133,0 -87.99948,-39.49726 -87.99948,-87.99954 0,-48.50224 39.49722,-87.9995 87.99948,-87.9995 z"
   id="path2"
   style="fill:#ebce00;fill-opacity:1;stroke-width:0.891585" /></svg>
